<?xml version="1.0" encoding="iso-8859-1"?>
<!-- Uploaded to: SVG Repo, www.svgrepo.com, Generator: SVG Repo Mixer Tools -->
<svg height="800px" width="800px" version="1.1" id="Layer_1" xmlns="http://www.w3.org/2000/svg" xmlns:xlink="http://www.w3.org/1999/xlink" 
	 viewBox="0 0 512 512" xml:space="preserve">
<path style="fill:#FFFFFF;" d="M501.551,232.409c0-27.403-22.302-49.699-49.72-49.699c-1.713,0-3.42,0.092-5.118,0.263
	c-8.623-22.519-30.342-37.73-54.967-37.73c-24.622,0-46.341,15.212-54.963,37.73c-1.699-0.171-3.407-0.263-5.12-0.263
	c-27.418,0-49.72,22.296-49.72,49.699L501.551,232.409L501.551,232.409z"/>
<g>
	<polygon style="fill:#FFAF00;" points="373.64,294.146 301.075,399.066 349.519,479.084 498.718,479.084 501.551,479.084 	"/>
	<polygon style="fill:#FFAF00;" points="373.64,294.146 413.78,479.084 498.718,479.084 501.551,479.084 	"/>
</g>
<g>
	<circle style="fill:#FFD41D;" cx="77.322" cy="110.132" r="39.048"/>
	<polygon style="fill:#FFD41D;" points="349.519,479.084 345.765,479.084 10.451,479.084 179.985,199.053 	"/>
</g>
<polygon style="fill:#FFAF00;" points="349.519,479.084 345.765,479.084 223.15,479.084 179.985,199.053 "/>
<path d="M382.235,288.202c-1.951-2.821-5.163-4.506-8.594-4.506s-6.642,1.683-8.594,4.506l-63.39,91.652L188.923,193.641
	c-1.894-3.127-5.284-5.037-8.939-5.037c-3.655,0-7.045,1.91-8.939,5.037L1.511,473.673c-1.953,3.227-2.017,7.256-0.164,10.541
	c1.852,3.286,5.332,5.318,9.103,5.318h212.653c0.011,0,0.022,0.001,0.033,0.001c0.014,0,0.027-0.001,0.04-0.001h126.342h64.204
	c0.016,0,0.031,0.002,0.047,0.002c0.013,0,0.025-0.002,0.039-0.002h87.743c3.886,0,7.45-2.156,9.254-5.597
	c1.803-3.442,1.55-7.6-0.66-10.796L382.235,288.202z M368.537,319.895l32.282,148.741h-45.412l-41.889-69.191L368.537,319.895z
	 M174.038,229.053l36.93,239.583H28.992L174.038,229.053z M232.111,468.635L198.34,249.548l93.911,155.121
	c0.001,0.001,0.001,0.003,0.002,0.004l38.724,63.963h-98.866V468.635z M422.204,468.635l-27.171-125.191l86.586,125.191H422.204z"/>
<path d="M281.942,242.858h219.609c5.77,0,10.449-4.678,10.449-10.449c0-32.659-26.171-59.323-58.652-60.128
	c-11.758-22.695-35.635-37.486-61.603-37.486c-25.967,0-49.841,14.79-61.599,37.486c-32.48,0.806-58.654,27.469-58.654,60.128
	C271.493,238.18,276.171,242.858,281.942,242.858z M331.662,193.159c1.318,0,2.687,0.071,4.071,0.211
	c4.696,0.47,9.121-2.256,10.807-6.66c7.104-18.552,25.271-31.018,45.205-31.018c19.936,0,38.104,12.466,45.209,31.019
	c1.688,4.404,6.099,7.131,10.808,6.659c1.382-0.139,2.751-0.21,4.069-0.21c18.036,0,33.27,12.214,37.859,28.8H293.802
	C298.391,205.373,313.626,193.159,331.662,193.159z"/>
<path d="M77.325,159.634c27.296,0,49.502-22.206,49.502-49.502S104.621,60.63,77.325,60.63s-49.502,22.207-49.502,49.502
	S50.028,159.634,77.325,159.634z M77.325,81.528c15.773,0,28.604,12.831,28.604,28.604s-12.831,28.604-28.604,28.604
	s-28.604-12.831-28.604-28.604S61.553,81.528,77.325,81.528z"/>
<path d="M77.325,58.804c5.77,0,10.449-4.678,10.449-10.449v-15.44c0-5.771-4.679-10.449-10.449-10.449s-10.449,4.678-10.449,10.449
	v15.44C66.876,54.126,71.554,58.804,77.325,58.804z"/>
<path d="M66.876,171.91v15.441c0,5.771,4.679,10.449,10.449,10.449s10.449-4.678,10.449-10.449V171.91
	c0-5.771-4.679-10.449-10.449-10.449S66.876,166.139,66.876,171.91z"/>
<path d="M130.835,89.693c1.772,0,3.568-0.451,5.214-1.401l13.371-7.72c4.998-2.886,6.71-9.276,3.824-14.273
	c-2.884-4.997-9.272-6.71-14.273-3.825l-13.371,7.72c-4.998,2.886-6.71,9.276-3.824,14.273
	C123.711,87.82,127.223,89.693,130.835,89.693z"/>
<path d="M18.598,131.974l-13.37,7.719c-4.998,2.885-6.71,9.276-3.824,14.273c1.936,3.352,5.447,5.226,9.059,5.226
	c1.772,0,3.569-0.451,5.214-1.401l13.37-7.72c4.998-2.885,6.71-9.276,3.824-14.273C29.987,130.8,23.597,129.088,18.598,131.974z"/>
<path d="M5.228,80.573l13.372,7.719c1.645,0.95,3.441,1.401,5.213,1.401c3.612,0,7.124-1.873,9.059-5.227
	c2.886-4.998,1.172-11.388-3.825-14.273l-13.373-7.72c-4.998-2.886-11.388-1.172-14.272,3.825
	C-1.484,71.298,0.229,77.687,5.228,80.573z"/>
<path d="M149.422,139.693l-13.371-7.721c-4.999-2.885-11.387-1.173-14.273,3.824c-2.886,4.998-1.173,11.387,3.824,14.273
	l13.372,7.721c1.646,0.95,3.442,1.401,5.214,1.401c3.611,0,7.123-1.873,9.059-5.226C156.131,148.97,154.42,142.579,149.422,139.693z
	"/>
<path d="M153.922,307.007c-4.937-2.988-11.361-1.406-14.348,3.531l-2.618,4.325c-2.987,4.937-1.407,11.361,3.531,14.348
	c1.691,1.023,3.557,1.511,5.399,1.511c3.536,0,6.986-1.795,8.95-5.042l2.618-4.325C160.44,316.418,158.86,309.994,153.922,307.007z"
	/>
<path d="M132.751,341.982c-4.938-2.99-11.361-1.41-14.35,3.527l-53.957,89.124c-2.988,4.937-1.41,11.362,3.528,14.35
	c1.692,1.024,3.558,1.512,5.401,1.512c3.536,0,6.985-1.794,8.948-5.038l53.957-89.124
	C139.268,351.395,137.688,344.97,132.751,341.982z"/>
</svg>