<?xml version="1.0" encoding="iso-8859-1"?>
<!-- Uploaded to: SVG Repo, www.svgrepo.com, Generator: SVG Repo Mixer Tools -->
<svg height="800px" width="800px" version="1.1" id="Layer_1" xmlns="http://www.w3.org/2000/svg" xmlns:xlink="http://www.w3.org/1999/xlink" 
	 viewBox="0 0 512.002 512.002" xml:space="preserve">
<polygon style="fill:#FEE187;" points="96.774,322.631 415.227,322.631 367.557,240.065 144.444,240.065 "/>
<g>
	<path style="fill:#FFC61B;" d="M415.227,337.117H96.774c-5.176,0-9.958-2.761-12.545-7.243c-2.589-4.482-2.589-10.004,0-14.486
		l47.67-82.566c2.587-4.482,7.369-7.243,12.545-7.243h223.113c5.176,0,9.958,2.761,12.545,7.243l47.67,82.566
		c2.589,4.482,2.589,10.004,0,14.486C425.184,334.356,420.401,337.117,415.227,337.117z M121.863,308.146h268.272l-30.943-53.594
		H152.807L121.863,308.146z"/>
	<path style="fill:#FFC61B;" d="M334.116,196.611c-5.006,0-9.875-2.599-12.558-7.246L256,75.815l-53.014,91.821h62.187
		c8,0,14.486,6.487,14.486,14.486s-6.485,14.486-14.486,14.486h-87.277c-5.176,0-9.958-2.761-12.545-7.243
		c-2.589-4.482-2.589-10.004,0-14.486l78.103-135.278c2.587-4.482,7.369-7.243,12.545-7.243c5.176,0,9.958,2.761,12.545,7.243
		l78.103,135.278c4.001,6.929,1.627,15.787-5.302,19.788C339.066,195.984,336.575,196.611,334.116,196.611z"/>
	<path style="fill:#FFC61B;" d="M497.515,479.644H14.486c-5.176,0-9.958-2.761-12.545-7.243c-2.589-4.482-2.589-10.004,0-14.486
		l48.833-84.584c2.587-4.482,7.369-7.243,12.545-7.243H284.97c8,0,14.486,6.487,14.486,14.486s-6.485,14.486-14.486,14.486H71.683
		l-32.108,55.612h432.85l-32.108-55.612h-68.429c-8.001,0-14.486-6.487-14.486-14.486s6.485-14.486,14.486-14.486h76.793
		c5.176,0,9.958,2.761,12.545,7.243l48.834,84.584c2.589,4.482,2.589,10.004,0,14.486
		C507.472,476.882,502.69,479.644,497.515,479.644z"/>
</g>
</svg>